<?xml version="1.0" encoding="utf-8"?>
<!-- Generator: Adobe Illustrator 24.1.1, SVG Export Plug-In . SVG Version: 6.00 Build 0)  -->
<svg version="1.1" id="Layer_1" xmlns="http://www.w3.org/2000/svg" xmlns:xlink="http://www.w3.org/1999/xlink" x="0px" y="0px"
	 viewBox="0 0 512 512" style="enable-background:new 0 0 512 512;" xml:space="preserve">
<g>
	<path d="M369.8,365.8c-32.8,25-72.8,38.9-114.1,39.6l0.3,21.3v-21.3c-33.2,0-62.9-9.4-89.4-24c-39.7-21.8-71.8-55.7-93.5-84.3
		C62.3,282.8,54,270,48.5,260.8c-2.8-4.6-4.8-8.3-6.2-10.8l-1.5-2.8l-0.3-0.6l-0.1-0.1L21.3,256l18.8,10.1
		c25.1-46.8,59.9-87.6,102.1-119.9c9.4-7.2,11.2-20.5,4-29.9c-7.2-9.4-20.5-11.2-29.9-4c-47,35.9-85.8,81.5-113.8,133.6
		c-3.3,6.1-3.4,13.4-0.3,19.6c0.6,1.1,22.6,45.3,64.9,90.4c21.1,22.5,47.4,45.3,78.9,62.8c31.5,17.4,68.5,29.3,110,29.3l0.3,0
		c50.4-0.8,99.2-17.7,139.3-48.3c9.4-7.1,11.2-20.5,4-29.9C392.5,360.4,379.2,358.6,369.8,365.8L369.8,365.8z M216.1,111.2
		c13-3,26.2-4.6,39.5-4.6h0.2l0-6.1l-0.1,6.1l0.1,0l0-6.1l-0.1,6.1l0.3,0c33.2,0,62.9,9.4,89.4,24c39.7,21.8,71.8,55.7,93.5,84.3
		c10.9,14.2,19.2,27.1,24.7,36.3c2.8,4.6,4.8,8.3,6.2,10.8l1.5,2.8l0.3,0.6l0.1,0.1l19.1-9.5l-18.8-10.1
		c-12.2,22.9-26.9,44.5-43.6,64.4c-7.6,9-6.4,22.5,2.6,30.1c9,7.6,22.5,6.4,30.1-2.6c18.6-22.2,34.9-46.2,48.6-71.7
		c3.3-6.1,3.4-13.4,0.3-19.6c-0.6-1.1-22.6-45.3-64.9-90.4c-21.1-22.5-47.4-45.3-78.9-62.8C334.5,75.9,297.4,64,256,64v21.3
		l0.3-21.3l-0.7,0c-16.6,0-33.1,1.9-49.3,5.7c-11.5,2.7-18.6,14.2-15.9,25.6S204.6,113.9,216.1,111.2L216.1,111.2z M285.6,286.7
		c-8.5,9.1-19.7,13.6-31.2,13.6c-10.5,0-20.8-3.8-29.1-11.5l0,0c-9.1-8.5-13.6-19.7-13.6-31.2c0-10.5,3.8-20.8,11.4-29.1L207.6,214
		l15.1,15.1l3.2-3.2c8.3-8.3,8.3-21.9,0-30.2c-8.3-8.3-21.9-8.3-30.2,0.1l-3.2,3.2l-0.5,0.5c-15.3,16.4-22.9,37.4-22.9,58.2
		c0,22.8,9.2,45.7,27.2,62.4l0,0c16.4,15.3,37.4,22.9,58.2,22.9c22.8,0,45.7-9.2,62.4-27.2c8-8.6,7.6-22.1-1.1-30.2
		C307.2,277.6,293.7,278.1,285.6,286.7L285.6,286.7z"/>
	<path d="M6.2,36.4l469.3,469.3c8.3,8.3,21.8,8.3,30.2,0c8.3-8.3,8.3-21.8,0-30.2L36.4,6.2c-8.3-8.3-21.8-8.3-30.2,0
		C-2.1,14.6-2.1,28.1,6.2,36.4"/>
</g>
</svg>
